<svg width="210" height="297" viewBox="0 0 210 297" fill="none" xmlns="http://www.w3.org/2000/svg">
<path fill-rule="evenodd" clip-rule="evenodd" d="M74.457 17.541H135.23L136.59 76.535L71.737 78L74.457 17.541Z" fill="url(#paint0_linear)" stroke="#1F1A17" stroke-width="0.7056" stroke-linecap="round" stroke-linejoin="round"/>
<path fill-rule="evenodd" clip-rule="evenodd" d="M94.107 36.579L111.88 36.643L111.69 33.076L110.16 30.464L107.61 28.871L98.375 29.062L94.872 30.591L94.171 32.948L94.107 36.579Z" fill="#838281" stroke="#1F1A17" stroke-width="0.7056" stroke-linecap="round" stroke-linejoin="round"/>
<path d="M96.974 36.452L96.91 32.948L96.209 31.738L95.063 31.802L94.362 32.821" stroke="#1F1A17" stroke-width="0.7056" stroke-linecap="round" stroke-linejoin="round"/>
<path d="M98.503 36.324V33.076L98.948 31.929L99.968 31.738L101.37 32.184L101.75 33.394L101.62 36.388" stroke="#1F1A17" stroke-width="0.7056" stroke-linecap="round" stroke-linejoin="round"/>
<path d="M104.11 36.388L103.92 33.267L104.36 31.929L105.32 31.61L106.53 31.929L107.29 33.012L107.36 36.452" stroke="#1F1A17" stroke-width="0.7056" stroke-linecap="round" stroke-linejoin="round"/>
<path d="M108.89 36.261L109.01 32.821L109.33 31.738L110.35 31.483" stroke="#1F1A17" stroke-width="0.7056" stroke-linecap="round" stroke-linejoin="round"/>
<path d="M94.999 30.719L109.59 30.336" stroke="#1F1A17" stroke-width="0.7056" stroke-linecap="round" stroke-linejoin="round"/>
<path d="M107.357 36.898H98.566V56.263H107.357V36.898Z" fill="#AAA9A9" stroke="#1F1A17" stroke-width="0.7056" stroke-linecap="round" stroke-linejoin="round"/>
<path d="M107.739 38.235H98.057V41.1652H107.739V38.235Z" fill="#AAA9A9" stroke="#1F1A17" stroke-width="0.7056" stroke-linecap="round" stroke-linejoin="round"/>
<path d="M108.376 57.791H97.866V65.6898H108.376V57.791Z" fill="#AAA9A9" stroke="#1F1A17" stroke-width="0.7056" stroke-linecap="round" stroke-linejoin="round"/>
<path d="M97.929 64.543L108.25 64.225" stroke="#1F1A17" stroke-width="0.7056" stroke-linecap="round" stroke-linejoin="round"/>
<path d="M97.929 62.543L108.25 62.225" stroke="#1F1A17" stroke-width="0.7056" stroke-linecap="round" stroke-linejoin="round"/>
<path d="M97.929 60.543L108.25 60.225" stroke="#1F1A17" stroke-width="0.7056" stroke-linecap="round" stroke-linejoin="round"/>
<path d="M97.929 58.543L108.25 58.225" stroke="#1F1A17" stroke-width="0.7056" stroke-linecap="round" stroke-linejoin="round"/>
<path d="M109.204 54.67H97.101V58.6194H109.204V54.67Z" fill="#AAA9A9" stroke="#1F1A17" stroke-width="0.7056" stroke-linecap="round" stroke-linejoin="round"/>
<path d="M103.02 55.8806C106.116 55.8806 108.626 53.3709 108.626 50.275C108.626 47.1791 106.116 44.6694 103.02 44.6694C99.9241 44.6694 97.4144 47.1791 97.4144 50.275C97.4144 53.3709 99.9241 55.8806 103.02 55.8806Z" fill="#AAA9A9" stroke="#1F1A17" stroke-width="0.7056" stroke-linecap="round" stroke-linejoin="round"/>
<path d="M103.04 54.1517C105.186 54.1517 106.926 52.412 106.926 50.266C106.926 48.12 105.186 46.3803 103.04 46.3803C100.894 46.3803 99.1543 48.12 99.1543 50.266C99.1543 52.412 100.894 54.1517 103.04 54.1517Z" stroke="#1F1A17" stroke-width="0.7056" stroke-linecap="round" stroke-linejoin="round"/>
<path d="M103.02 52.1857C104.111 52.1857 104.995 51.3016 104.995 50.211C104.995 49.1204 104.111 48.2363 103.02 48.2363C101.929 48.2363 101.045 49.1204 101.045 50.211C101.045 51.3016 101.929 52.1857 103.02 52.1857Z" fill="#1F1A17" stroke="#1F1A17" stroke-width="0.7056" stroke-linecap="round" stroke-linejoin="round"/>
<path fill-rule="evenodd" clip-rule="evenodd" d="M46.321 243.92L41.523 248.17L39.878 253.11L45.773 260.65L87.314 268.6L121.45 268.74L154.49 263.12L162.44 257.77L158.88 245.98L46.321 243.92Z" fill="#1F1A17" stroke="#1F1A17" stroke-width="0.7056" stroke-linecap="round" stroke-linejoin="round"/>
<path fill-rule="evenodd" clip-rule="evenodd" d="M51.005 77.765C49.2707 78.976 47.4317 80.0746 45.8952 81.5285C44.4932 82.855 43.3883 84.47 42.2622 86.0376C41.2912 87.3893 40.3195 88.7637 39.6147 90.2713C39.1987 91.1613 38.1175 92.4085 37.6027 93.7983C36.4701 96.8561 35.9177 100.606 35.9515 102.767L36.3617 128.982L37.0123 194.042V215.512C37.1667 218.935 37.2741 222.361 37.4753 225.782C37.5994 227.892 37.8173 229.996 37.9882 232.103C37.9882 232.103 38.5438 237.122 39.1944 238.749C39.845 240.375 42.2171 244.977 42.2171 244.977C43.5183 246.432 44.4843 248.279 46.1207 249.344C48.4837 250.881 51.2825 251.622 53.9279 252.597C57.4671 253.9 61.0192 255.2 64.6629 256.175C68.7304 257.263 72.9038 257.91 77.0239 258.777C77.0239 258.777 86.1323 259.753 88.0839 260.078C90.0357 260.404 99.7949 260.404 99.7949 260.404C104.241 260.404 108.689 260.538 113.132 260.404C117.941 260.259 122.741 259.901 127.54 259.566C131.819 259.266 136.127 259.165 140.364 258.5C144.034 257.923 147.727 257.193 151.192 255.85C154.54 254.551 157.596 252.573 160.626 250.645C162.383 249.527 164.141 248.315 165.505 246.741C167.003 245.013 168.408 243.29 169.454 241.256C170.517 239.188 171.708 236.79 171.819 234.468L172.336 223.645L172.987 211.934L173.032 197.761L172.799 183.45L172.336 157.284V124.429C172.461 116.761 172.967 109.09 172.709 101.425C172.641 99.3929 172.225 96.7745 171.638 94.8284C170.891 92.3513 169.895 90.4815 168.713 88.1799C167.813 86.4271 166.493 84.9094 165.18 83.4405C164.003 82.1246 162.636 80.9875 161.276 79.8622C159.488 78.3827 157.725 76.8442 155.746 75.6333C153.554 74.2922 151.159 73.0332 148.822 71.9648C145.938 70.6463 143.083 69.5107 140.087 68.4743C137.242 67.4907 134.261 66.9579 131.349 66.1996C131.349 66.1996 124.192 64.8984 121.59 64.5731C118.987 64.2478 111.831 63.5972 111.831 63.5972H102.072L90.3606 64.5731C90.3606 64.5731 86.9128 65.4137 82.5534 66.5249C78.194 67.6361 70.7524 69.5001 70.7524 69.5001C67.3775 70.5829 63.9552 71.528 60.6274 72.7483C58.5892 73.4958 56.6019 74.3923 54.677 75.3958C53.3849 76.0694 52.1984 76.9313 51.0037 77.7655L51.005 77.765Z" fill="url(#paint1_radial)" stroke="#1F1A17" stroke-width="0.7056" stroke-linecap="round" stroke-linejoin="round"/>
<path fill-rule="evenodd" clip-rule="evenodd" d="M77.804 15.24L136.28 15.344L136.8 19.424L77.49 19.528L77.804 15.24Z" fill="url(#paint2_linear)" stroke="#1F1A17" stroke-width="0.7056" stroke-linecap="round" stroke-linejoin="round"/>
<path fill-rule="evenodd" clip-rule="evenodd" d="M71.528 15.135L65.461 15.24L63.265 15.867L61.8 17.122L61.591 19.005L61.905 29.57L62.428 31.243L63.265 32.185L65.984 32.708L69.645 32.499L69.331 44.318L68.599 47.456L67.762 49.862L66.821 52.163L65.357 53.523L62.323 53.732V70.364L60.963 72.351L64.101 73.188L67.03 73.816L70.9 73.711H74.771L76.549 73.293L75.921 71.828L79.059 69.632L83.034 65.238L83.139 18.482L82.616 17.122L80.942 15.972L79.582 15.553L71.528 15.135Z" fill="#5EA9FF" stroke="#1F1A17" stroke-width="0.7056" stroke-linecap="round" stroke-linejoin="round"/>
<path fill-rule="evenodd" clip-rule="evenodd" d="M127.28 20.783L129.06 64.506L129.58 66.703L131.04 68.063L135.54 71.096L136.38 72.979L138.47 73.606L142.03 73.293L145.48 72.979L147.57 72.77L146.42 69.527L146.11 52.791L144.64 53.314L143.18 51.85L142.24 49.967L140.98 47.143V44.214L140.46 31.557L142.97 31.766L144.96 31.453L146 30.197L146.21 28.315L146.11 18.168L145.69 16.495L144.96 15.867L143.81 15.24L132.82 15.344L130.84 15.763L129.16 16.39L127.91 17.855L127.28 19.11V20.783Z" fill="#5EA9FF" stroke="#1F1A17" stroke-width="0.7056" stroke-linecap="round" stroke-linejoin="round"/>
<path fill-rule="evenodd" clip-rule="evenodd" d="M36.69 168.23C35.4664 169.924 35.658 171.378 36.9449 173.29C38.3448 174.311 39.3507 174.555 40.9404 175.213C43.4392 176.246 46.057 176.966 48.6154 177.842C48.6154 177.842 58.3974 179.311 59.3084 179.615C60.2192 179.919 68.5682 180.678 69.7824 180.829C70.9968 180.981 79.6494 181.588 80.7124 181.588C81.775 181.588 91.3384 181.892 91.3384 181.892C95.2852 182.017 99.2309 182.186 103.178 182.268C106.517 182.338 109.858 182.386 113.197 182.347C116.336 182.311 119.473 182.177 122.609 182.044C125.444 181.924 128.277 181.752 131.11 181.588C134.4 181.398 137.696 181.287 140.977 180.981C143.67 180.73 146.34 180.269 149.022 179.919C151.754 179.561 154.243 179.162 156.934 178.57C159.324 178.044 161.874 177.336 164.202 176.579C165.922 176.02 167.654 175.596 169.298 174.844C170.663 174.219 171.558 173.921 172.677 172.918C173.57 171.787 174.13 169.723 172.57 168.404C171.156 168.58 170.082 169.33 168.734 169.793C166.993 170.393 165.363 171.054 163.595 171.57C161.709 172.12 159.76 172.435 157.827 172.784C156.115 173.093 154.388 173.309 152.665 173.543C150.29 173.866 147.909 174.15 145.531 174.454C145.531 174.454 137.637 175.516 136.878 175.516C136.119 175.516 127.467 176.201 127.467 176.201C124.532 176.454 121.605 176.457 118.662 176.579C115.477 176.71 112.286 177.007 109.099 177.055C105.606 177.108 102.117 176.883 98.6248 176.883C94.6262 176.883 90.628 176.739 86.6328 176.579C83.0374 176.435 79.4469 176.183 75.8548 175.972C72.5653 175.778 69.2688 175.669 65.9878 175.365C62.8395 175.072 59.6964 174.692 56.5762 174.181C53.5189 173.679 50.4741 173.079 47.4682 172.329C45.1545 171.751 42.8661 171.051 40.6372 170.203C39.2624 169.681 38.0092 169.002 36.6904 168.23H36.69Z" fill="#5EA9FF" stroke="#1F1A17" stroke-width="0.7056" stroke-linecap="round" stroke-linejoin="round"/>
<path fill-rule="evenodd" clip-rule="evenodd" d="M42.942 245.85C42.1293 246.322 41.5208 247.069 40.974 247.818C40.328 248.703 39.829 249.696 39.3996 250.704C38.8198 252.066 38.2964 253.463 37.9564 254.903C37.55 256.624 37.338 258.39 37.1692 260.151C37.0314 261.588 36.859 263.048 37.038 264.48C37.213 265.881 37.7854 267.204 38.2188 268.548C38.6604 269.917 38.904 271.392 39.662 272.615C40.2977 273.64 41.3283 274.374 42.286 275.108C43.3937 275.956 44.6217 276.637 45.8284 277.338C47.3344 278.213 48.8897 279 50.4204 279.831C50.4204 279.831 55.7996 281.93 56.718 282.192C57.6364 282.455 66.1644 284.292 66.1644 284.292C68.9633 284.729 71.7472 285.276 74.5612 285.604C77.3931 285.933 80.2495 286.005 83.0892 286.26C86.1101 286.53 89.116 286.972 92.142 287.178C94.8922 287.366 97.6514 287.398 100.408 287.44C103.294 287.485 106.181 287.463 109.067 287.44C111.691 287.42 114.319 287.46 116.939 287.309C119.658 287.153 122.368 286.847 125.073 286.522C127.836 286.191 130.586 285.747 133.339 285.341C135.921 284.96 138.509 284.611 141.08 284.16C143.496 283.737 145.923 283.339 148.296 282.717C150.436 282.156 152.524 281.402 154.593 280.618C156.682 279.827 158.731 278.93 160.76 277.994C162.713 277.092 164.777 276.351 166.532 275.108C167.971 274.089 169.162 272.723 170.206 271.303C170.764 270.544 170.934 269.564 171.256 268.679C171.634 267.639 172.052 266.607 172.305 265.53C172.579 264.368 172.743 263.178 172.83 261.988C172.919 260.766 172.958 259.532 172.83 258.314C172.694 257.026 172.382 255.759 172.043 254.509C171.681 253.175 171.373 251.707 170.965 250.386C170.63 249.301 170.155 248.209 169.485 247.293C168.762 246.305 167.943 245.812 166.654 244.866C164.976 246.211 163.565 247.649 161.853 248.789C160.266 249.846 158.742 250.827 156.941 251.754C157.118 253.17 157.419 253.493 157.648 254.378C157.798 254.953 157.973 255.544 158.076 256.129C158.154 256.573 158.452 257.045 158.287 257.465C158.144 257.828 157.673 257.974 157.303 258.097C155.55 258.682 153.754 259.131 151.96 259.574C148.715 260.374 145.462 261.149 142.188 261.823C140.796 262.11 139.376 262.244 137.97 262.456C137.666 262.502 137.362 262.632 137.056 262.596C136.732 262.559 136.359 262.489 136.143 262.245C134.622 260.536 133.732 258.701 131.924 256.832C129.802 256.961 127.285 257.114 124.965 257.254C122.621 257.395 120.281 257.592 117.935 257.676C115.687 257.756 113.435 257.742 111.186 257.793C109.311 257.835 107.437 257.918 105.562 257.957C103.992 257.989 102.397 257.795 100.852 257.957C100.066 259.173 99.8979 260.686 99.3756 262.034C99.171 262.562 98.9991 263.118 98.6726 263.581C98.4235 263.934 98.0666 264.216 97.6884 264.424C97.3699 264.6 96.9952 264.663 96.6339 264.706C96.1917 264.758 95.742 264.74 95.2982 264.706C87.0235 264.06 78.7512 263.384 70.4822 262.667C70.1021 262.634 69.7181 262.58 69.3574 262.456C68.961 262.32 68.5421 262.176 68.2326 261.893C67.9771 261.66 67.7211 261.325 67.7405 260.98C67.8416 259.179 68.5647 257.37 68.5841 255.637C67.1513 254.98 65.6551 254.72 64.2257 254.301C62.5351 253.805 60.9303 253.371 59.2342 252.895C57.5074 252.41 55.7912 251.881 54.1023 251.278C52.8359 250.826 51.6247 250.231 50.3764 249.732C49.9842 249.575 49.6364 249.433 49.1813 249.298C48.5562 250.134 48.2437 251.106 47.5644 251.841C46.5158 252.976 45.5066 254.349 44.0494 254.863C43.4711 255.068 43.1778 253.998 42.784 253.528C42.4499 253.129 42.1435 252.705 41.8701 252.262C41.6499 251.906 41.4191 251.542 41.3077 251.138C41.2267 250.844 41.2339 250.519 41.3077 250.224C41.4248 249.755 41.6142 249.298 41.8701 248.888C42.0898 248.536 42.426 248.273 42.7137 247.974C43.0587 247.616 43.3636 247.449 43.7682 246.92C43.6053 246.46 43.2067 246.171 42.9419 245.85H42.942Z" fill="url(#paint3_linear)" stroke="#1F1A17" stroke-width="0.7056" stroke-linecap="round" stroke-linejoin="round"/>
<defs>
<linearGradient id="paint0_linear" x1="103.32" y1="17.286" x2="105.01" y2="78.254" gradientUnits="userSpaceOnUse">
<stop stop-color="#29578B"/>
<stop offset="0.38039" stop-color="#286DBC"/>
<stop offset="1" stop-color="#257BDE"/>
</linearGradient>
<radialGradient id="paint1_radial" cx="0" cy="0" r="1" gradientUnits="userSpaceOnUse" gradientTransform="translate(133.27 93.138) scale(41.358)">
<stop stop-color="#5599E7"/>
<stop offset="0.36863" stop-color="#3F8BE3"/>
<stop offset="1" stop-color="#2378DA"/>
</radialGradient>
<linearGradient id="paint2_linear" x1="107.14" y1="19.528" x2="107.14" y2="15.24" gradientUnits="userSpaceOnUse">
<stop stop-color="#5EA9FF"/>
<stop offset="0.78039" stop-color="#5FA8FD"/>
<stop offset="1" stop-color="#A7C3E4"/>
</linearGradient>
<linearGradient id="paint3_linear" x1="102.87" y1="289.44" x2="106.94" y2="242.91" gradientUnits="userSpaceOnUse">
<stop stop-color="#5EA9FF"/>
<stop offset="0.47843" stop-color="#2074D3"/>
<stop offset="1" stop-color="#699DDA"/>
</linearGradient>
</defs>
</svg>
