<svg width="368" height="75" viewBox="0 0 368 75" fill="none" xmlns="http://www.w3.org/2000/svg">
<path d="M16.3125 13.5L28 46.5L39.625 13.5H51.9375V59H42.5312V46.5625L43.4688 25.0938L31.1875 59H24.75L12.5 25.125L13.4375 46.5625V59H4.0625V13.5H16.3125ZM127.906 47.0625C127.906 45.2917 127.281 43.9375 126.031 43C124.781 42.0417 122.531 41.0417 119.281 40C116.031 38.9375 113.458 37.8958 111.562 36.875C106.396 34.0833 103.812 30.3229 103.812 25.5938C103.812 23.1354 104.5 20.9479 105.875 19.0312C107.271 17.0938 109.26 15.5833 111.844 14.5C114.448 13.4167 117.365 12.875 120.594 12.875C123.844 12.875 126.74 13.4688 129.281 14.6562C131.823 15.8229 133.792 17.4792 135.188 19.625C136.604 21.7708 137.312 24.2083 137.312 26.9375H127.938C127.938 24.8542 127.281 23.2396 125.969 22.0938C124.656 20.9271 122.812 20.3438 120.438 20.3438C118.146 20.3438 116.365 20.8333 115.094 21.8125C113.823 22.7708 113.188 24.0417 113.188 25.625C113.188 27.1042 113.927 28.3438 115.406 29.3438C116.906 30.3438 119.104 31.2812 122 32.1562C127.333 33.7604 131.219 35.75 133.656 38.125C136.094 40.5 137.312 43.4583 137.312 47C137.312 50.9375 135.823 54.0312 132.844 56.2812C129.865 58.5104 125.854 59.625 120.812 59.625C117.312 59.625 114.125 58.9896 111.25 57.7188C108.375 56.4271 106.177 54.6667 104.656 52.4375C103.156 50.2083 102.406 47.625 102.406 44.6875H111.812C111.812 49.7083 114.812 52.2188 120.812 52.2188C123.042 52.2188 124.781 51.7708 126.031 50.875C127.281 49.9583 127.906 48.6875 127.906 47.0625Z" fill="black"/>
<path d="M97.5 37.2812C97.5 41.7604 96.7083 45.6875 95.125 49.0625C93.5417 52.4375 91.2708 55.0417 88.3125 56.875C85.375 58.7083 82 59.625 78.1875 59.625C74.4167 59.625 71.0521 58.7188 68.0938 56.9062C65.1354 55.0938 62.8438 52.5104 61.2188 49.1562C59.5938 45.7812 58.7708 41.9062 58.75 37.5312V35.2812C58.75 30.8021 59.5521 26.8646 61.1562 23.4688C62.7812 20.0521 65.0625 17.4375 68 15.625C70.9583 13.7917 74.3333 12.875 78.125 12.875C81.9167 12.875 85.2812 13.7917 88.2188 15.625C91.1771 17.4375 93.4583 20.0521 95.0625 23.4688C96.6875 26.8646 97.5 30.7917 97.5 35.25V37.2812ZM88 35.2188C88 30.4479 87.1458 26.8229 85.4375 24.3438C83.7292 21.8646 81.2917 20.625 78.125 20.625C74.9792 20.625 72.5521 21.8542 70.8438 24.3125C69.1354 26.75 68.2708 30.3333 68.25 35.0625V37.2812C68.25 41.9271 69.1042 45.5312 70.8125 48.0938C72.5208 50.6562 74.9792 51.9375 78.1875 51.9375C81.3333 51.9375 83.75 50.7083 85.4375 48.25C87.125 45.7708 87.9792 42.1667 88 37.4375V35.2188ZM174.594 59.625C169.635 59.625 165.594 58.1042 162.469 55.0625C159.365 52.0208 157.812 47.9688 157.812 42.9062V42.0312C157.812 38.6354 158.469 35.6042 159.781 32.9375C161.094 30.25 162.948 28.1875 165.344 26.75C167.76 25.2917 170.51 24.5625 173.594 24.5625C178.219 24.5625 181.854 26.0208 184.5 28.9375C187.167 31.8542 188.5 35.9896 188.5 41.3438V45.0312H166.969C167.26 47.2396 168.135 49.0104 169.594 50.3438C171.073 51.6771 172.938 52.3438 175.188 52.3438C178.667 52.3438 181.385 51.0833 183.344 48.5625L187.781 53.5312C186.427 55.4479 184.594 56.9479 182.281 58.0312C179.969 59.0938 177.406 59.625 174.594 59.625ZM173.562 31.875C171.771 31.875 170.312 32.4792 169.188 33.6875C168.083 34.8958 167.375 36.625 167.062 38.875H179.625V38.1562C179.583 36.1562 179.042 34.6146 178 33.5312C176.958 32.4271 175.479 31.875 173.562 31.875ZM201.969 25.1875L202.25 29.0938C204.667 26.0729 207.906 24.5625 211.969 24.5625C215.552 24.5625 218.219 25.6146 219.969 27.7188C221.719 29.8229 222.615 32.9688 222.656 37.1562V59H213.625V37.375C213.625 35.4583 213.208 34.0729 212.375 33.2188C211.542 32.3438 210.156 31.9062 208.219 31.9062C205.677 31.9062 203.771 32.9896 202.5 35.1562V59H193.469V25.1875H201.969ZM245.094 59.625C240.135 59.625 236.094 58.1042 232.969 55.0625C229.865 52.0208 228.312 47.9688 228.312 42.9062V42.0312C228.312 38.6354 228.969 35.6042 230.281 32.9375C231.594 30.25 233.448 28.1875 235.844 26.75C238.26 25.2917 241.01 24.5625 244.094 24.5625C248.719 24.5625 252.354 26.0208 255 28.9375C257.667 31.8542 259 35.9896 259 41.3438V45.0312H237.469C237.76 47.2396 238.635 49.0104 240.094 50.3438C241.573 51.6771 243.438 52.3438 245.688 52.3438C249.167 52.3438 251.885 51.0833 253.844 48.5625L258.281 53.5312C256.927 55.4479 255.094 56.9479 252.781 58.0312C250.469 59.0938 247.906 59.625 245.094 59.625ZM244.062 31.875C242.271 31.875 240.812 32.4792 239.688 33.6875C238.583 34.8958 237.875 36.625 237.562 38.875H250.125V38.1562C250.083 36.1562 249.542 34.6146 248.5 33.5312C247.458 32.4271 245.979 31.875 244.062 31.875ZM283.156 33.6562C281.927 33.4896 280.844 33.4062 279.906 33.4062C276.49 33.4062 274.25 34.5625 273.188 36.875V59H264.156V25.1875H272.688L272.938 29.2188C274.75 26.1146 277.26 24.5625 280.469 24.5625C281.469 24.5625 282.406 24.6979 283.281 24.9688L283.156 33.6562ZM285.594 41.8438C285.594 36.6562 286.823 32.4792 289.281 29.3125C291.76 26.1458 295.094 24.5625 299.281 24.5625C302.99 24.5625 305.875 25.8333 307.938 28.375L308.312 25.1875H316.5V57.875C316.5 60.8333 315.823 63.4062 314.469 65.5938C313.135 67.7812 311.25 69.4479 308.812 70.5938C306.375 71.7396 303.521 72.3125 300.25 72.3125C297.771 72.3125 295.354 71.8125 293 70.8125C290.646 69.8333 288.865 68.5625 287.656 67L291.656 61.5C293.906 64.0208 296.635 65.2812 299.844 65.2812C302.24 65.2812 304.104 64.6354 305.438 63.3438C306.771 62.0729 307.438 60.2604 307.438 57.9062V56.0938C305.354 58.4479 302.615 59.625 299.219 59.625C295.156 59.625 291.865 58.0417 289.344 54.875C286.844 51.6875 285.594 47.4688 285.594 42.2188V41.8438ZM294.625 42.5C294.625 45.5625 295.24 47.9688 296.469 49.7188C297.698 51.4479 299.385 52.3125 301.531 52.3125C304.281 52.3125 306.25 51.2812 307.438 49.2188V35C306.229 32.9375 304.281 31.9062 301.594 31.9062C299.427 31.9062 297.719 32.7917 296.469 34.5625C295.24 36.3333 294.625 38.9792 294.625 42.5ZM336.094 46.2188L342.344 25.1875H352.031L338.438 64.25L337.688 66.0312C335.667 70.4479 332.333 72.6562 327.688 72.6562C326.375 72.6562 325.042 72.4583 323.688 72.0625V65.2188L325.062 65.25C326.771 65.25 328.042 64.9896 328.875 64.4688C329.729 63.9479 330.396 63.0833 330.875 61.875L331.938 59.0938L320.094 25.1875H329.812L336.094 46.2188Z" fill="#5EA9FF"/>
<path d="M79.4858 20.2703L85.1027 49.9155H73.8689L79.4858 20.2703Z" fill="url(#paint0_linear)"/>
<defs>
<linearGradient id="paint0_linear" x1="79.4858" y1="20.2703" x2="79.4858" y2="59.7973" gradientUnits="userSpaceOnUse">
<stop stop-color="#85BEFF"/>
<stop offset="0.692708" stop-color="#00C9C4" stop-opacity="0"/>
</linearGradient>
</defs>
</svg>
